<?xml version="1.0" encoding="UTF-8" standalone="no"?>
<svg width="225px" height="226px" viewBox="0 0 225 226" version="1.1" xmlns="http://www.w3.org/2000/svg" xmlns:xlink="http://www.w3.org/1999/xlink">
    <!-- Generator: Sketch 41.2 (35397) - http://www.bohemiancoding.com/sketch -->
    <title>Wallpaper 225x225</title>
    <desc>Created with Sketch.</desc>
    <defs>
        <rect id="path-1" x="0" y="0.619089949" width="225" height="225"></rect>
    </defs>
    <g id="Badges" stroke="none" stroke-width="1" fill="none" fill-rule="evenodd">
        <g id="Artboard" transform="translate(-72.000000, -556.000000)">
            <g id="Wallpaper-225x225" transform="translate(72.000000, 556.000000)">
                <mask id="mask-2" fill="white">
                    <use xlink:href="#path-1"></use>
                </mask>
                <use id="Rectangle-26" fill="#55565A" xlink:href="#path-1"></use>
                <g id="Wallpaper-Grey-225x225" mask="url(#mask-2)">
                    <g transform="translate(8.500000, 9.119090)" id="XMLID_79_">
                        <g>
                            <path d="M27.0780198,60.4619857 C26.0430198,60.2369857 25.0080198,60.1019857 23.9730198,60.1019857 C16.2330198,60.1019857 9.97801984,66.4919857 9.97801984,74.3669857 C9.97801984,75.3119857 10.0680198,76.3019857 10.2480198,77.2019857" id="XMLID_82_" stroke="#4A4A4A" stroke-width="1.42605"></path>
                            <path d="M26.1330198,88.5419857 C32.8380198,87.4619857 38.0130198,81.5669857 38.0130198,74.4119857 C38.0130198,71.4419857 37.1130198,68.5619857 35.4030198,66.1319857" id="XMLID_83_" stroke="#4A4A4A" stroke-width="1.42605"></path>
                            <path id="XMLID_84_" stroke="#4A4A4A" stroke-width="0.713025"></path>
                            <path id="XMLID_85_" stroke="#4A4A4A" stroke-width="0.713025"></path>
                            <path id="XMLID_86_" stroke="#4A4A4A" stroke-width="0.713025"></path>
                            <path d="M16.9530198,77.9669857 C15.6480198,66.5369857 23.9730198,60.1469857 23.9730198,60.1469857" id="XMLID_87_" stroke="#4A4A4A" stroke-width="0.713025"></path>
                            <path d="M26.4930198,86.9669857 C39.4530198,74.1869857 24.5130198,60.1469857 24.5130198,60.1469857" id="XMLID_88_" stroke="#4A4A4A" stroke-width="0.713025"></path>
                            <path d="M35.4030198,66.1319857 C33.4230198,63.2969857 30.4530198,61.2719857 27.0780198,60.4619857" id="XMLID_283_" stroke="#4A4A4A" stroke-width="1.42605"></path>
                            <ellipse id="XMLID_285_" stroke="#4A4A4A" stroke-width="1.42605" cx="23.2080198" cy="93.4919857" rx="1.845" ry="1.845"></ellipse>
                            <ellipse id="XMLID_286_" stroke="#4A4A4A" stroke-width="1.42605" cx="9.75301984" cy="93.4919857" rx="1.845" ry="1.845"></ellipse>
                            <polyline id="XMLID_287_" stroke="#4A4A4A" stroke-width="1.42605" points="8.67301984 87.0119857 9.75301984 91.6469857 23.2080198 91.6469857"></polyline>
                            <polyline id="XMLID_288_" stroke="#4A4A4A" stroke-width="1.42605" points="0.618019842 70.9019857 4.89301984 70.9019857 7.05301984 80.1269857"></polyline>
                            <path id="XMLID_289_" stroke="#4A4A4A" stroke-width="1.42605"></path>
                            <path d="M9.21301984,89.2169857 L23.6130198,89.2169857 C24.0630198,89.2169857 24.5130198,89.1269857 24.8730198,88.8569857 C25.3680198,88.4519857 25.4130198,88.1819857 25.4130198,88.1819857 L26.2680198,85.6169857" id="XMLID_290_" stroke="#4A4A4A" stroke-width="1.42605"></path>
                            <path d="M26.2230198,85.6169857 L28.1580198,79.8119857 C28.2930198,79.4069857 28.2030198,79.0019857 27.9780198,78.6869857 C27.7080198,78.3269857 27.3030198,78.1019857 26.8530198,78.1919857 L16.9530198,78.2369857" id="XMLID_291_" stroke="#4A4A4A" stroke-width="1.42605"></path>
                            <path d="M7.05301984,80.1269857 L8.67301984,87.0119857" id="XMLID_292_" stroke="#4A4A4A" stroke-width="1.42605"></path>
                            <path id="XMLID_293_" stroke="#4A4A4A" stroke-width="0.713025"></path>
                            <path id="XMLID_294_" stroke="#4A4A4A" stroke-width="0.713025"></path>
                            <path d="M12.9480198,89.1269857 L11.1480198,80.4869857" id="XMLID_295_" stroke="#4A4A4A" stroke-width="0.713025"></path>
                            <path d="M16.4130198,89.0369857 L15.1080198,80.3069857" id="XMLID_296_" stroke="#4A4A4A" stroke-width="0.713025"></path>
                            <path d="M19.6080198,88.4969857 L18.7080198,80.0819857" id="XMLID_297_" stroke="#4A4A4A" stroke-width="0.713025"></path>
                            <path d="M22.8480198,88.8569857 L22.3080198,80.0369857" id="XMLID_298_" stroke="#4A4A4A" stroke-width="0.713025"></path>
                            <path id="XMLID_299_" stroke="#4A4A4A" stroke-width="0.612585"></path>
                            <ellipse id="XMLID_300_" stroke="#4A4A4A" stroke-width="0.612585" cx="192.40802" cy="91.4669857" rx="0.63" ry="0.63"></ellipse>
                            <path d="M183.67802,67.5719857 L200.82302,67.5719857 C201.49802,67.5719857 202.03802,68.1119857 202.03802,68.7869857 L202.03802,88.2269857 C202.03802,88.9019857 201.49802,89.4419857 200.82302,89.4419857 L183.67802,89.4419857 C183.00302,89.4419857 182.46302,88.9019857 182.46302,88.2269857 L182.46302,68.7869857 C182.46302,68.1119857 183.00302,67.5719857 183.67802,67.5719857 Z" id="XMLID_301_" stroke="#4A4A4A" stroke-width="0.612585"></path>
                            <path d="M180.30302,87.8669857 L180.30302,65.9969857 C180.30302,64.8269857 181.24802,63.8369857 182.46302,63.8369857 L198.52802,63.8369857" id="XMLID_302_" stroke="#4A4A4A" stroke-width="1.22517"></path>
                            <path d="M204.37802,76.2119857 L204.37802,92.1419857 C204.37802,93.3119857 203.43302,94.3019857 202.21802,94.3019857 L192.27302,94.3019857" id="XMLID_303_" stroke="#4A4A4A" stroke-width="1.22517"></path>
                            <path d="M192.27302,94.3019857 L182.46302,94.3019857 C181.29302,94.3019857 180.30302,93.3569857 180.30302,92.1419857 L180.30302,87.8669857" id="XMLID_304_" stroke="#4A4A4A" stroke-width="1.22517"></path>
                            <path d="M198.52802,63.8369857 L202.21802,63.8369857 C203.38802,63.8369857 204.37802,64.7819857 204.37802,65.9969857 L204.37802,76.2119857" id="XMLID_305_" stroke="#4A4A4A" stroke-width="1.22517"></path>
                            <path d="M26.9880198,22.6169857 C26.9880198,22.6169857 15.7830198,33.3719857 9.97801984,33.3719857 C7.27801984,33.3719857 5.47801984,32.2919857 4.39801984,30.8519857" id="XMLID_306_" stroke="#4A4A4A" stroke-width="1.63017"></path>
                            <path d="M7.63801984,32.9669857 L7.63801984,27.5219857 C7.63801984,27.1619857 7.90801984,26.8919857 8.26801984,26.8919857 L11.6880198,26.8919857 C12.0480198,26.8919857 12.3180198,27.1619857 12.3180198,27.5219857 L12.3180198,32.9669857" id="XMLID_307_" stroke="#4A4A4A" stroke-width="1.63017"></path>
                            <path d="M33.9630198,32.8319857 L33.9630198,23.6969857 C33.9630198,23.3369857 34.2330198,23.0669857 34.5930198,23.0669857 L38.0130198,23.0669857 C38.3730198,23.0669857 38.6430198,23.3369857 38.6430198,23.6969857 L38.6430198,33.4169857" id="XMLID_308_" stroke="#4A4A4A" stroke-width="1.63017"></path>
                            <path d="M20.7330198,23.7419857 L20.7780198,9.97198567 C20.7780198,9.61198567 21.0480198,9.34198567 21.4080198,9.34198567 L21.4080198,9.34198567 L24.8280198,9.34198567 C25.1880198,9.34198567 25.4580198,9.61198567 25.4580198,9.97198567 L25.4580198,23.7869857" id="XMLID_309_" stroke="#4A4A4A" stroke-width="1.63017"></path>
                            <path d="M27.3930198,28.8719857 L27.3480198,14.4719857 C27.4380198,14.2019857 27.6630198,14.0219857 27.9780198,14.0219857 L31.3980198,14.0219857 C31.7130198,14.0219857 31.9830198,14.2919857 31.9830198,14.6519857 L31.9830198,32.1569857" id="XMLID_310_" stroke="#4A4A4A" stroke-width="1.63017"></path>
                            <path d="M12.2280198,18.3869857 C13.5780198,18.7919857 14.8830198,19.3769857 16.0080198,20.1869857" id="XMLID_311_" stroke="#4A4A4A" stroke-width="1.63017"></path>
                            <path d="M4.35301984,30.8969857 C3.22801984,29.3219857 2.59801984,27.4769857 2.59801984,25.5419857 C2.59801984,22.6619857 4.30801984,18.0719857 9.93301984,18.0719857 C10.6980198,18.0719857 11.4630198,18.1619857 12.1830198,18.3869857" id="XMLID_312_" stroke="#4A4A4A" stroke-width="1.63017"></path>
                            <path d="M36.6630198,17.8469857 L36.2580198,17.8469857 C33.5580198,17.8469857 32.2980198,19.1069857 32.2980198,19.1069857" id="XMLID_313_" stroke="#4A4A4A" stroke-width="1.63017"></path>
                            <path d="M29.5530198,30.8969857 C32.1180198,32.4719857 34.7280198,33.5969857 36.8880198,33.5969857 C38.1030198,33.6419857 39.2730198,33.3269857 40.3080198,32.6969857" id="XMLID_314_" stroke="#4A4A4A" stroke-width="1.63017"></path>
                            <path d="M19.1580198,22.7519857 C20.8680198,24.1019857 26.4030198,28.5119857 29.5530198,30.8969857" id="XMLID_315_" stroke="#4A4A4A" stroke-width="1.63017"></path>
                            <path d="M14.1180198,32.2019857 L14.1180198,21.1319857 C14.1180198,20.7719857 14.3880198,20.5019857 14.7480198,20.5019857 L18.1680198,20.5019857 C18.5280198,20.5019857 18.7980198,20.7719857 18.7980198,21.1319857 L18.7980198,29.2769857" id="XMLID_316_" stroke="#4A4A4A" stroke-width="1.63017"></path>
                            <path d="M40.3080198,32.6969857 C43.2330198,30.8969857 43.8180198,26.8919857 43.8180198,25.7219857 C43.8180198,23.1119857 42.6480198,18.0719857 36.6630198,17.8469857" id="XMLID_317_" stroke="#4A4A4A" stroke-width="1.63017"></path>
                            <path d="M93.9930198,149.066986 L70.3230198,149.066986 C68.2080198,149.066986 66.4980198,147.356986 66.4980198,145.241986 L66.4980198,143.171986" id="XMLID_318_" stroke="#4A4A4A" stroke-width="1.277415"></path>
                            <path d="M75.5430198,126.476986 L95.5680198,126.476986 C97.6830198,126.476986 99.3930198,128.186986 99.3930198,130.301986 L99.3930198,139.661986" id="XMLID_319_" stroke="#4A4A4A" stroke-width="1.277415"></path>
                            <circle id="XMLID_320_" stroke="#4A4A4A" stroke-width="1.277415" cx="71.7180198" cy="134.891986" r="2.25"></circle>
                            <path id="XMLID_321_" stroke="#4A4A4A" stroke-width="1.277415"></path>
                            <path id="XMLID_322_" stroke="#4A4A4A" stroke-width="1.277415"></path>
                            <path id="XMLID_323_" stroke="#4A4A4A" stroke-width="1.277415"></path>
                            <path id="XMLID_324_" stroke="#4A4A4A" stroke-width="1.277415"></path>
                            <path id="XMLID_325_" stroke="#4A4A4A" stroke-width="1.277415"></path>
                            <path id="XMLID_326_" stroke="#4A4A4A" stroke-width="1.277415"></path>
                            <path id="XMLID_327_" stroke="#4A4A4A" stroke-width="1.277415"></path>
                            <path id="XMLID_328_" stroke="#4A4A4A" stroke-width="1.277415"></path>
                            <circle id="XMLID_329_" stroke="#4A4A4A" stroke-width="1.277415" cx="86.8830198" cy="136.916986" r="2.25"></circle>
                            <ellipse id="XMLID_330_" stroke="#4A4A4A" stroke-width="1.277415" cx="79.2780198" cy="141.191986" rx="2.25" ry="2.25"></ellipse>
                            <circle id="XMLID_331_" stroke="#4A4A4A" stroke-width="1.277415" cx="94.5330198" cy="132.866986" r="2.25"></circle>
                            <path d="M66.4980198,143.171986 L66.4980198,130.301986 C66.4980198,128.186986 68.2080198,126.476986 70.3230198,126.476986 L75.5430198,126.476986" id="XMLID_332_" stroke="#4A4A4A" stroke-width="1.277415"></path>
                            <path d="M99.3930198,139.661986 L99.3930198,145.241986 C99.3930198,147.356986 97.6830198,149.066986 95.5680198,149.066986 L93.9930198,149.066986" id="XMLID_333_" stroke="#4A4A4A" stroke-width="1.277415"></path>
                            <path d="M155.55302,25.4069857 C155.95802,25.7669857 156.18302,26.2169857 156.18302,26.7569857 C156.18302,28.6919857 152.49302,30.2219857 147.90302,30.2219857 C146.01302,30.2669857 144.12302,29.9519857 142.32302,29.3219857 C140.65802,28.6919857 139.66802,27.7919857 139.66802,26.7569857 C139.66802,24.8219857 143.35802,23.2919857 147.94802,23.2919857 L148.35302,23.2919857" id="XMLID_334_" stroke="#4A4A4A" stroke-width="1.26288"></path>
                            <path d="M148.35302,23.2469857 C149.65802,23.2469857 151.00802,23.4269857 152.26802,23.7419857 C153.75302,24.1019857 154.92302,24.6869857 155.59802,25.3619857" id="XMLID_335_" stroke="#4A4A4A" stroke-width="1.26288"></path>
                            <path d="M154.56302,40.4819857 C155.55302,39.8969857 156.18302,39.1769857 156.18302,38.4119857 L156.18302,27.1169857" id="XMLID_336_" stroke="#4A4A4A" stroke-width="1.26288"></path>
                            <path d="M139.66802,27.1169857 L139.66802,38.4119857 C139.66802,39.7169857 141.37802,40.8419857 143.89802,41.4719857" id="XMLID_337_" stroke="#4A4A4A" stroke-width="1.26288"></path>
                            <path d="M156.18302,30.5819857 C156.18302,32.5169857 152.49302,34.0469857 147.90302,34.0469857 C147.54302,34.0469857 147.13802,34.0469857 146.77802,34.0019857 C142.72802,33.7769857 139.62302,32.3369857 139.62302,30.5369857" id="XMLID_338_" stroke="#4A4A4A" stroke-width="1.26288"></path>
                            <path d="M156.18302,34.4969857 C156.18302,36.4319857 152.49302,37.9619857 147.90302,37.9619857 C145.29302,37.9619857 142.99802,37.4669857 141.46802,36.6569857 C140.34302,36.0719857 139.66802,35.3069857 139.66802,34.4969857" id="XMLID_339_" stroke="#4A4A4A" stroke-width="1.26288"></path>
                            <path d="M143.89802,41.4719857 C145.20302,41.7869857 146.55302,41.9219857 147.90302,41.9219857 C149.43302,41.9219857 151.00802,41.7419857 152.49302,41.3369857 C153.21302,41.1569857 153.88802,40.8419857 154.56302,40.4819857" id="XMLID_340_" stroke="#4A4A4A" stroke-width="1.26288"></path>
                            <path d="M137.68802,17.3519857 C137.68802,15.3269857 135.79802,14.6519857 134.04302,14.6519857 C132.55802,14.6069857 131.29802,15.7319857 131.20802,17.2169857 L131.20802,17.4419857 C131.20802,19.5119857 134.31302,20.6369857 134.31302,20.6369857 C134.31302,20.6369857 137.59802,21.3569857 137.59802,24.2369857 C137.59802,26.0819857 135.75302,26.8469857 134.31302,26.8469857 C132.87302,26.8469857 131.02802,25.3169857 131.02802,24.0569857" id="XMLID_341_" stroke="#4A4A4A" stroke-width="1.26288"></path>
                            <path id="XMLID_342_" stroke="#4A4A4A" stroke-width="1.26288"></path>
                            <path d="M144.93302,23.1119857 C146.23802,17.2619857 142.54802,11.4569857 136.69802,10.1519857 C135.93302,9.97198567 135.12302,9.88198567 134.31302,9.88198567" id="XMLID_343_" stroke="#4A4A4A" stroke-width="1.26288"></path>
                            <path d="M126.52802,28.3319857 C128.55302,30.4469857 131.38802,31.6169857 134.31302,31.6169857 C136.02302,31.6619857 137.73302,31.2569857 139.21802,30.3569857" id="XMLID_344_" stroke="#4A4A4A" stroke-width="1.26288"></path>
                            <path d="M134.31302,9.88198567 C128.32802,9.88198567 123.42302,14.7419857 123.42302,20.7269857 C123.42302,23.5619857 124.54802,26.3069857 126.52802,28.3319857" id="XMLID_345_" stroke="#4A4A4A" stroke-width="1.26288"></path>
                            <path d="M181.74302,35.3519857 L181.74302,38.8619857 C181.69802,39.3569857 181.29302,39.7619857 180.79802,39.7619857 C180.30302,39.7619857 179.85302,39.4019857 179.85302,38.8619857 L179.85302,35.3069857" id="XMLID_346_" stroke="#4A4A4A" stroke-width="1.18836"></path>
                            <path d="M187.68302,35.1719857 L187.68302,38.7719857 C187.68302,39.3119857 187.23302,39.7169857 186.69302,39.7169857 L186.69302,39.7169857 C186.15302,39.7169857 185.74802,39.2669857 185.74802,38.7719857 L185.74802,35.3519857" id="XMLID_347_" stroke="#4A4A4A" stroke-width="1.18836"></path>
                            <path d="M178.09802,35.1269857 L189.25802,35.1269857 C189.25802,35.1269857 190.33802,35.1719857 190.33802,34.1369857 C190.33802,31.4819857 190.24802,28.1519857 187.45802,27.0719857 C186.78302,26.8019857 180.39302,26.8469857 179.71802,27.2069857 C178.99802,27.5219857 176.79302,29.1419857 176.92802,33.8669857 C176.83802,33.8669857 177.01802,35.1269857 178.09802,35.1269857 Z" id="XMLID_348_" stroke="#4A4A4A" stroke-width="1.18836"></path>
                            <path d="M180.07802,27.0719857 L180.07802,25.1369857 C180.07802,24.1919857 180.84302,23.3819857 181.83302,23.3819857 L185.97302,23.3819857 C186.91802,23.3819857 187.72802,24.1469857 187.72802,25.1369857 L187.72802,27.0269857" id="XMLID_349_" stroke="#4A4A4A" stroke-width="1.18836"></path>
                            <path d="M189.84302,12.0869857 C194.83802,12.4019857 194.34302,17.9369857 194.34302,17.9369857 L194.34302,33.2369857" id="XMLID_350_" stroke="#4A4A4A" stroke-width="1.18836"></path>
                            <path id="XMLID_351_" stroke="#4A4A4A" stroke-width="1.18836"></path>
                            <path id="XMLID_352_" stroke="#4A4A4A" stroke-width="1.18836"></path>
                            <path d="M194.38802,33.2369857 L194.38802,35.0819857 C194.38802,35.0819857 194.52302,39.2219857 199.42802,39.2219857 C204.33302,39.2219857 203.88302,34.7669857 203.88302,34.7669857 L203.88302,12.6269857" id="XMLID_353_" stroke="#4A4A4A" stroke-width="1.18836"></path>
                            <path d="M183.81302,17.5319857 C183.81302,17.5319857 183.90302,12.1319857 189.39302,12.1319857 L189.84302,12.1319857" id="XMLID_354_" stroke="#4A4A4A" stroke-width="1.18836"></path>
                            <path id="XMLID_355_" stroke="#4A4A4A" stroke-width="1.28304"></path>
                            <circle id="XMLID_356_" stroke="#4A4A4A" stroke-width="0.64152" cx="69.6930198" cy="67.0769857" r="0.765"></circle>
                            <circle id="XMLID_357_" stroke="#4A4A4A" stroke-width="0.64152" cx="73.6080198" cy="67.0769857" r="0.765"></circle>
                            <circle id="XMLID_358_" stroke="#4A4A4A" stroke-width="0.64152" cx="77.5230198" cy="67.0769857" r="0.765"></circle>
                            <path d="M65.0130198,84.2669857 L65.0130198,66.3119857 C65.0130198,65.2319857 65.8680198,64.3769857 66.9480198,64.3769857 L69.9180198,64.3769857" id="XMLID_359_" stroke="#4A4A4A" stroke-width="1.28304"></path>
                            <path d="M100.02302,67.9769857 L100.02302,91.0619857 C100.02302,92.1419857 99.1680198,92.9969857 98.0880198,92.9969857 L87.4230198,92.9969857" id="XMLID_360_" stroke="#4A4A4A" stroke-width="1.28304"></path>
                            <path d="M69.8730198,64.3769857 L98.0880198,64.3769857 C99.1680198,64.3769857 100.02302,65.2319857 100.02302,66.3119857 L100.02302,68.0219857" id="XMLID_361_" stroke="#4A4A4A" stroke-width="1.28304"></path>
                            <path d="M69.1080198,73.6919857 L95.2530198,73.6919857 C95.4330198,73.6919857 95.5680198,73.8269857 95.5680198,74.0069857 L95.5680198,77.0669857 C95.5680198,77.2469857 95.4330198,77.3819857 95.2530198,77.3819857 L69.1080198,77.3819857 C68.9280198,77.3819857 68.7930198,77.2469857 68.7930198,77.0669857 L68.7930198,74.0069857 C68.7930198,73.8269857 68.9730198,73.6919857 69.1080198,73.6919857 Z" id="XMLID_362_" stroke="#4A4A4A" stroke-width="0.64152"></path>
                            <path d="M69.0630198,80.1719857 L74.5530198,80.1719857 C74.7330198,80.1719857 74.8680198,80.3069857 74.8680198,80.4869857 L74.8680198,90.2969857 C74.8680198,90.4769857 74.7330198,90.6119857 74.5530198,90.6119857 L69.0630198,90.6119857 C68.8830198,90.6119857 68.7480198,90.4769857 68.7480198,90.2969857 L68.7480198,80.4419857 C68.7480198,80.3069857 68.8830198,80.1719857 69.0630198,80.1719857 Z" id="XMLID_363_" stroke="#4A4A4A" stroke-width="0.64152"></path>
                            <path d="M78.2430198,80.1719857 L95.3430198,80.1719857 C95.5230198,80.1719857 95.6580198,80.3069857 95.6580198,80.4869857 L95.6580198,90.2969857 C95.6580198,90.4769857 95.5230198,90.6119857 95.3430198,90.6119857 L78.2430198,90.6119857 C78.0630198,90.6119857 77.9280198,90.4769857 77.9280198,90.2969857 L77.9280198,80.4419857 C77.9280198,80.3069857 78.0630198,80.1719857 78.2430198,80.1719857 Z" id="XMLID_364_" stroke="#4A4A4A" stroke-width="0.64152"></path>
                            <path d="M94.3980198,66.3119857 L96.9180198,68.7419857" id="XMLID_365_" stroke="#4A4A4A" stroke-width="0.64152"></path>
                            <path d="M94.2630198,68.6519857 L96.9180198,66.3119857" id="XMLID_366_" stroke="#4A4A4A" stroke-width="0.64152"></path>
                            <path d="M87.4230198,93.0419857 L66.9480198,93.0419857 C65.8680198,93.0419857 65.0130198,92.1869857 65.0130198,91.1069857 L65.0130198,84.2669857" id="XMLID_367_" stroke="#4A4A4A" stroke-width="1.28304"></path>
                            <path d="M155.37302,75.5369857 C155.73302,75.9419857 155.95802,76.5269857 155.95802,77.0669857 L155.95802,82.1969857" id="XMLID_368_" stroke="#4A4A4A" stroke-width="1.342485"></path>
                            <polyline id="XMLID_369_" stroke="#4A4A4A" stroke-width="1.342485" points="131.74802 78.7319857 126.79802 75.6269857 130.35302 72.3869857"></polyline>
                            <polyline id="XMLID_370_" stroke="#4A4A4A" stroke-width="1.342485" points="152.13302 72.7919857 155.59802 75.8069857 150.15302 79.1369857"></polyline>
                            <path d="M147.49802,68.6969857 L149.47802,70.4519857" id="XMLID_371_" stroke="#4A4A4A" stroke-width="1.342485"></path>
                            <path d="M136.11302,67.0769857 L139.89302,63.5669857 C140.11802,63.3419857 140.47802,63.2069857 140.79302,63.1619857 C141.10802,63.1619857 141.42302,63.2969857 141.69302,63.4769857 L147.49802,68.6519857" id="XMLID_372_" stroke="#4A4A4A" stroke-width="1.342485"></path>
                            <path d="M132.69302,70.2269857 L136.11302,67.0769857" id="XMLID_373_" stroke="#4A4A4A" stroke-width="1.342485"></path>
                            <path d="M142.81802,78.5519857 C142.32302,79.3169857 141.46802,79.7669857 140.52302,79.6769857 C139.03802,79.4969857 138.99302,77.6069857 139.21802,76.7069857 C139.48802,75.4469857 140.56802,74.9519857 141.69302,75.1319857 C142.81802,75.3119857 143.58302,75.4019857 143.58302,75.4019857 L142.63802,79.2719857 C142.63802,79.6319857 142.90802,79.9469857 143.26802,80.0369857 C143.76302,80.1719857 145.15802,79.9019857 145.78802,78.7319857 C146.91302,75.6269857 145.42802,72.8819857 141.91802,72.7919857 C138.40802,72.7019857 135.52802,74.8169857 135.84302,78.8669857 C135.88802,79.1819857 135.97802,79.4969857 136.06802,79.8119857" id="XMLID_374_" stroke="#4A4A4A" stroke-width="1.342485"></path>
                            <path d="M140.70302,70.4519857 L150.60302,70.4519857 C150.91802,70.4519857 151.23302,70.5419857 151.54802,70.7219857 C151.77302,70.9019857 151.95302,71.1719857 151.99802,71.4869857 L151.99802,77.9669857" id="XMLID_375_" stroke="#4A4A4A" stroke-width="1.342485"></path>
                            <path d="M130.39802,77.7419857 L130.39802,71.7119857 C130.39802,71.3519857 130.57802,70.9919857 130.84802,70.7669857 C131.11802,70.5419857 131.43302,70.4519857 131.79302,70.4969857 L140.70302,70.4969857" id="XMLID_376_" stroke="#4A4A4A" stroke-width="1.342485"></path>
                            <path d="M126.34802,88.0469857 L126.34802,77.1119857 C126.34802,76.5269857 126.57302,75.9419857 126.97802,75.4919857" id="XMLID_377_" stroke="#4A4A4A" stroke-width="1.342485"></path>
                            <path d="M155.95802,82.1969857 L155.95802,90.9269857 C155.95802,92.2319857 154.92302,93.2669857 153.61802,93.2669857 L128.73302,93.2669857 C127.42802,93.2669857 126.39302,92.2319857 126.39302,90.9269857 L126.39302,88.0469857" id="XMLID_378_" stroke="#4A4A4A" stroke-width="1.342485"></path>
                            <polyline id="XMLID_379_" stroke="#4A4A4A" stroke-width="1.342485" points="150.15302 79.1369857 141.15302 84.6269857 131.74802 78.7319857"></polyline>
                            <ellipse id="XMLID_380_" stroke="#4A4A4A" stroke-width="0.864855" cx="5.07301984" cy="122.156986" rx="4.23" ry="4.23"></ellipse>
                            <ellipse id="XMLID_381_" stroke="#4A4A4A" stroke-width="0.864855" cx="16.1430198" cy="120.761986" rx="4.23" ry="4.23"></ellipse>
                            <ellipse id="XMLID_382_" stroke="#4A4A4A" stroke-width="0.864855" cx="27.3030198" cy="121.976986" rx="4.23" ry="4.23"></ellipse>
                            <path d="M32.9280198,129.536986 L34.0980198,129.536986 C35.0880198,129.581986 35.8530198,130.391986 35.8530198,131.381986 L35.8530198,147.581986" id="XMLID_383_" stroke="#4A4A4A" stroke-width="0.864855"></path>
                            <path d="M8.98801984,135.071986 L8.98801984,131.381986 C8.94301984,130.391986 9.75301984,129.536986 10.7430198,129.536986 L25.1430198,129.536986" id="XMLID_384_" stroke="#4A4A4A" stroke-width="0.864855"></path>
                            <path d="M26.2680198,150.551986 L10.7430198,150.551986 C9.75301984,150.506986 8.94301984,149.696986 8.98801984,148.706986 L8.98801984,148.706986 L8.98801984,143.711986" id="XMLID_385_" stroke="#4A4A4A" stroke-width="0.864855"></path>
                            <path id="XMLID_386_" stroke="#4A4A4A" stroke-width="0.864855"></path>
                            <path id="XMLID_387_" stroke="#4A4A4A" stroke-width="0.864855"></path>
                            <ellipse id="XMLID_388_" stroke="#4A4A4A" stroke-width="0.5" cx="22.4430198" cy="148.211986" rx="0.585" ry="0.585"></ellipse>
                            <path id="XMLID_389_" stroke="#4A4A4A" stroke-width="0.864855"></path>
                            <path id="XMLID_390_" stroke="#4A4A4A" stroke-width="0.864855"></path>
                            <ellipse id="XMLID_391_" stroke="#4A4A4A" stroke-width="0.5" cx="10.7430198" cy="131.426986" rx="0.36" ry="0.36"></ellipse>
                            <ellipse id="XMLID_392_" stroke="#4A4A4A" stroke-width="0.5" cx="12.6330198" cy="131.426986" rx="0.36" ry="0.36"></ellipse>
                            <ellipse id="XMLID_393_" stroke="#4A4A4A" stroke-width="0.5" cx="14.5230198" cy="131.426986" rx="0.36" ry="0.36"></ellipse>
                            <path d="M11.5080198,135.296986 L13.1730198,135.296986 C13.5330198,135.296986 13.8030198,135.566986 13.8030198,135.926986 L13.8030198,137.186986 C13.8030198,137.546986 13.5330198,137.816986 13.1730198,137.816986 L11.5080198,137.816986 C11.1480198,137.816986 10.8780198,137.546986 10.8780198,137.186986 L10.8780198,135.926986 C10.8780198,135.566986 11.1480198,135.296986 11.5080198,135.296986 Z" id="XMLID_394_" stroke="#4A4A4A" stroke-width="0.5"></path>
                            <path d="M15.5580198,135.296986 L17.2230198,135.296986 C17.5830198,135.296986 17.8530198,135.566986 17.8530198,135.926986 L17.8530198,137.186986 C17.8530198,137.546986 17.5830198,137.816986 17.2230198,137.816986 L15.5580198,137.816986 C15.1980198,137.816986 14.9280198,137.546986 14.9280198,137.186986 L14.9280198,135.926986 C14.8830198,135.566986 15.1980198,135.296986 15.5580198,135.296986 Z" id="XMLID_395_" stroke="#4A4A4A" stroke-width="0.5"></path>
                            <path d="M19.5630198,135.296986 L21.2280198,135.296986 C21.5880198,135.296986 21.8580198,135.566986 21.8580198,135.926986 L21.8580198,137.186986 C21.8580198,137.546986 21.5880198,137.816986 21.2280198,137.816986 L19.5630198,137.816986 C19.2030198,137.816986 18.9330198,137.546986 18.9330198,137.186986 L18.9330198,135.926986 C18.9330198,135.566986 19.2030198,135.296986 19.5630198,135.296986 Z" id="XMLID_396_" stroke="#4A4A4A" stroke-width="0.5"></path>
                            <path d="M11.5080198,138.851986 L21.4080198,138.851986 C21.7680198,138.851986 22.0380198,139.121986 22.0380198,139.481986 L22.0380198,143.216986 C22.0380198,143.576986 21.7680198,143.846986 21.4080198,143.846986 L11.5080198,143.846986 C11.1480198,143.846986 10.8780198,143.576986 10.8780198,143.216986 L10.8780198,139.481986 C10.8780198,139.166986 11.1480198,138.851986 11.5080198,138.851986 Z" id="XMLID_397_" stroke="#4A4A4A" stroke-width="0.5"></path>
                            <path d="M24.1530198,135.116986 L34.0530198,135.116986 C34.4130198,135.116986 34.6830198,135.386986 34.6830198,135.746986 L34.6830198,143.081986 C34.6830198,143.441986 34.4130198,143.711986 34.0530198,143.711986 L24.1530198,143.711986 C23.7930198,143.711986 23.5230198,143.441986 23.5230198,143.081986 L23.5230198,135.746986 C23.4780198,135.431986 23.7930198,135.116986 24.1530198,135.116986 Z" id="XMLID_398_" stroke="#4A4A4A" stroke-width="0.5"></path>
                            <path d="M32.7480198,130.931986 L33.9630198,132.101986" id="XMLID_399_" stroke="#4A4A4A" stroke-width="0.5"></path>
                            <path d="M32.7030198,132.056986 L33.9630198,130.931986" id="XMLID_400_" stroke="#4A4A4A" stroke-width="0.5"></path>
                            <path id="XMLID_401_" stroke="#4A4A4A" stroke-width="0.864855"></path>
                            <path d="M20.6430198,135.116986 L25.1430198,125.531986" id="XMLID_402_" stroke="#4A4A4A" stroke-width="0.864855"></path>
                            <path d="M11.2830198,135.116986 L7.05301984,126.026986" id="XMLID_403_" stroke="#4A4A4A" stroke-width="0.864855"></path>
                            <path d="M35.8530198,147.626986 L35.8530198,148.706986 C35.8980198,149.696986 35.0880198,150.551986 34.0980198,150.551986 L26.2680198,150.551986" id="XMLID_404_" stroke="#4A4A4A" stroke-width="0.864855"></path>
                            <path id="XMLID_405_" stroke="#4A4A4A" stroke-width="0.864855"></path>
                            <path id="XMLID_406_" stroke="#4A4A4A" stroke-width="0.864855"></path>
                            <path d="M120.81302,133.991986 L120.81302,126.341986 C120.81302,125.621986 121.39802,125.081986 122.07302,125.081986 L131.88302,125.081986" id="XMLID_407_" stroke="#4A4A4A" stroke-width="1.47879"></path>
                            <path id="XMLID_408_" stroke="#4A4A4A" stroke-width="1.47879"></path>
                            <path id="XMLID_409_" stroke="#4A4A4A" stroke-width="1.47879"></path>
                            <path d="M136.15802,125.621986 C136.15802,126.701986 135.25802,127.601986 134.17802,127.601986 C133.09802,127.601986 132.19802,126.701986 132.19802,125.621986" id="XMLID_410_" stroke="#4A4A4A" stroke-width="1.47879"></path>
                            <path d="M132.15302,125.621986 L132.15302,121.931986 C132.15302,120.851986 133.05302,119.951986 134.13302,119.951986 C135.21302,119.951986 136.11302,120.851986 136.11302,121.931986 L136.11302,125.621986" id="XMLID_411_" stroke="#4A4A4A" stroke-width="1.47879"></path>
                            <path id="XMLID_412_" stroke="#4A4A4A" stroke-width="0.739395"></path>
                            <path id="XMLID_413_" stroke="#4A4A4A" stroke-width="0.739395"></path>
                            <path id="XMLID_414_" stroke="#4A4A4A" stroke-width="0.739395"></path>
                            <path d="M135.21302,143.711986 L135.21302,135.251986 C135.21302,134.531986 135.79802,133.991986 136.47302,133.991986 L146.28302,133.991986" id="XMLID_415_" stroke="#4A4A4A" stroke-width="1.47879"></path>
                            <path d="M162.48302,144.431986 L162.48302,149.201986 C162.48302,149.921986 161.89802,150.461986 161.22302,150.461986 L137.50802,150.461986" id="XMLID_416_" stroke="#4A4A4A" stroke-width="1.47879"></path>
                            <path id="XMLID_417_" stroke="#4A4A4A" stroke-width="1.47879"></path>
                            <path d="M148.53302,136.556986 C147.45302,136.556986 146.55302,135.656986 146.55302,134.576986" id="XMLID_418_" stroke="#4A4A4A" stroke-width="1.47879"></path>
                            <path d="M150.51302,134.531986 C150.51302,135.611986 149.61302,136.511986 148.53302,136.511986" id="XMLID_419_" stroke="#4A4A4A" stroke-width="1.47879"></path>
                            <path d="M148.53302,128.906986 L148.53302,128.906986 C149.61302,128.906986 150.51302,129.806986 150.51302,130.886986 L150.51302,134.576986" id="XMLID_420_" stroke="#4A4A4A" stroke-width="1.47879"></path>
                            <path d="M146.55302,134.531986 L146.55302,130.841986 C146.55302,129.761986 147.45302,128.861986 148.53302,128.861986" id="XMLID_421_" stroke="#4A4A4A" stroke-width="1.47879"></path>
                            <path id="XMLID_422_" stroke="#4A4A4A" stroke-width="0.739395"></path>
                            <path id="XMLID_423_" stroke="#4A4A4A" stroke-width="0.739395"></path>
                            <path id="XMLID_424_" stroke="#4A4A4A" stroke-width="0.739395"></path>
                            <path id="XMLID_425_" stroke="#4A4A4A" stroke-width="0.739395"></path>
                            <path d="M145.74302,140.246986 C143.98802,140.291986 142.72802,138.086986 142.72802,138.086986 C142.72802,138.086986 142.36802,140.021986 141.37802,140.291986" id="XMLID_426_" stroke="#4A4A4A" stroke-width="0.739395"></path>
                            <path d="M141.24302,144.566986 C141.24302,144.566986 141.78302,145.736986 143.53802,145.736986 C144.52802,145.781986 145.47302,145.286986 146.05802,144.521986" id="XMLID_427_" stroke="#4A4A4A" stroke-width="0.739395"></path>
                            <path d="M141.24302,140.156986 L141.24302,139.076986 C141.24302,137.816986 142.23302,137.051986 143.49302,137.051986 C144.75302,137.051986 145.92302,137.861986 145.92302,139.166986 L145.87802,140.156986 C145.92302,140.111986 145.96802,140.111986 146.05802,140.111986 C146.37302,140.156986 146.59802,140.516986 146.55302,140.831986 C146.50802,141.101986 146.32802,141.281986 146.05802,141.326986 C146.01302,141.326986 145.92302,141.326986 145.87802,141.281986 C145.74302,142.451986 144.75302,143.351986 143.58302,143.351986 C142.41302,143.351986 141.46802,142.496986 141.28802,141.371986 C140.97302,141.371986 140.70302,141.101986 140.70302,140.786986 L140.70302,140.786986 C140.65802,140.471986 140.92802,140.201986 141.24302,140.156986" id="XMLID_428_" stroke="#4A4A4A" stroke-width="0.739395"></path>
                            <path d="M142.36802,143.036986 L142.36802,144.116986 C142.36802,144.116986 139.39802,144.296986 138.99302,146.231986 C138.99302,146.321986 138.94802,148.571986 138.94802,149.336986 C138.94802,149.516986 138.90302,149.696986 139.08302,149.876986 C139.21802,149.966986 139.35302,150.011986 139.53302,150.011986 L147.49802,150.101986 C147.81302,150.101986 147.99302,150.101986 148.12802,149.966986 C148.26302,149.786986 148.35302,149.561986 148.30802,149.381986 C148.30802,148.616986 148.30802,146.501986 148.26302,146.411986 C147.94802,144.386986 144.88802,144.116986 144.88802,144.116986 L144.88802,142.991986" id="XMLID_429_" stroke="#4A4A4A" stroke-width="0.739395"></path>
                            <path id="XMLID_430_" stroke="#4A4A4A" stroke-width="0.739395"></path>
                            <path id="XMLID_431_" stroke="#4A4A4A" stroke-width="0.739395"></path>
                            <path d="M146.32802,147.626986 C146.32802,147.626986 147.76802,148.031986 148.26302,147.401986" id="XMLID_432_" stroke="#4A4A4A" stroke-width="0.739395"></path>
                            <path d="M138.99302,147.716986 C138.99302,147.716986 140.43302,148.121986 140.92802,147.491986" id="XMLID_433_" stroke="#4A4A4A" stroke-width="0.739395"></path>
                            <path d="M130.35302,131.111986 C128.59802,131.156986 127.33802,128.951986 127.33802,128.951986 C127.33802,128.951986 126.97802,130.886986 125.98802,131.156986" id="XMLID_434_" stroke="#4A4A4A" stroke-width="0.739395"></path>
                            <path d="M125.85302,135.431986 C125.85302,135.431986 126.39302,136.601986 128.14802,136.601986 C129.13802,136.646986 130.08302,136.151986 130.66802,135.386986" id="XMLID_435_" stroke="#4A4A4A" stroke-width="0.739395"></path>
                            <path d="M125.85302,131.021986 L125.85302,129.941986 C125.85302,128.681986 126.84302,127.916986 128.10302,127.916986 C129.36302,127.916986 130.53302,128.726986 130.53302,130.031986 L130.48802,131.021986 C130.53302,130.976986 130.57802,130.976986 130.66802,130.976986 C130.98302,131.021986 131.20802,131.381986 131.16302,131.696986 C131.11802,131.966986 130.93802,132.146986 130.66802,132.191986 C130.62302,132.191986 130.53302,132.191986 130.48802,132.146986 C130.35302,133.316986 129.36302,134.216986 128.19302,134.216986 C127.02302,134.216986 126.03302,133.361986 125.89802,132.191986 C125.58302,132.191986 125.31302,131.921986 125.31302,131.606986 L125.31302,131.606986 C125.26802,131.336986 125.53802,131.066986 125.85302,131.021986" id="XMLID_436_" stroke="#4A4A4A" stroke-width="0.739395"></path>
                            <path d="M126.93302,133.946986 L126.93302,135.026986 C126.93302,135.026986 123.96302,135.206986 123.55802,137.141986 C123.55802,137.231986 123.51302,139.481986 123.51302,140.246986 C123.51302,140.426986 123.46802,140.606986 123.64802,140.786986 C123.78302,140.876986 123.91802,140.921986 124.09802,140.921986 L132.06302,141.011986 C132.37802,141.011986 132.55802,141.011986 132.69302,140.876986 C132.82802,140.696986 132.91802,140.516986 132.87302,140.291986 C132.87302,139.526986 132.87302,137.411986 132.82802,137.321986 C132.51302,135.296986 129.45302,135.026986 129.45302,135.026986 L129.45302,133.901986" id="XMLID_437_" stroke="#4A4A4A" stroke-width="0.739395"></path>
                            <path id="XMLID_438_" stroke="#4A4A4A" stroke-width="0.739395"></path>
                            <path id="XMLID_439_" stroke="#4A4A4A" stroke-width="0.739395"></path>
                            <path d="M130.93802,138.491986 C130.93802,138.491986 132.37802,138.896986 132.87302,138.266986" id="XMLID_440_" stroke="#4A4A4A" stroke-width="0.739395"></path>
                            <path d="M123.55802,138.581986 C123.55802,138.581986 124.99802,138.986986 125.49302,138.356986" id="XMLID_441_" stroke="#4A4A4A" stroke-width="0.739395"></path>
                            <path d="M155.46302,133.991986 L161.22302,133.991986 C161.94302,133.991986 162.48302,134.576986 162.48302,135.251986 L162.48302,144.431986" id="XMLID_442_" stroke="#4A4A4A" stroke-width="1.47879"></path>
                            <path d="M140.88302,125.036986 L146.86802,125.036986 C147.58802,125.036986 148.12802,125.621986 148.12802,126.296986 L148.12802,127.961986" id="XMLID_443_" stroke="#4A4A4A" stroke-width="1.47879"></path>
                            <path d="M137.50802,150.506986 L136.47302,150.506986 C135.75302,150.506986 135.21302,149.921986 135.21302,149.246986 L135.21302,143.756986" id="XMLID_444_" stroke="#4A4A4A" stroke-width="1.47879"></path>
                            <path d="M122.11802,141.551986 C121.39802,141.551986 120.85802,140.966986 120.85802,140.291986 L120.85802,133.991986" id="XMLID_445_" stroke="#4A4A4A" stroke-width="1.47879"></path>
                            <path d="M194.97302,137.591986 C195.15302,137.951986 195.24302,138.401986 195.19802,138.806986 C195.19802,140.426986 193.89302,141.731986 192.22802,141.731986 C190.60802,141.731986 189.30302,140.426986 189.30302,138.761986 C189.30302,137.141986 190.60802,135.836986 192.27302,135.836986 C192.58802,135.836986 192.90302,135.881986 193.17302,135.971986" id="XMLID_446_" stroke="#4A4A4A" stroke-width="0.59796"></path>
                            <path d="M197.62802,134.261986 C198.79802,135.521986 199.29302,136.961986 199.29302,138.806986 C199.29302,142.676986 196.14302,145.826986 192.27302,145.826986 C188.40302,145.826986 185.25302,142.676986 185.25302,138.806986 C185.25302,134.936986 188.40302,131.786986 192.27302,131.786986 C193.44302,131.741986 194.61302,132.011986 195.60302,132.596986" id="XMLID_447_" stroke="#4A4A4A" stroke-width="0.59796"></path>
                            <path d="M200.77802,131.021986 C202.98302,133.181986 203.65802,136.016986 203.65802,138.806986 C203.65802,145.106986 198.52802,150.236986 192.22802,150.236986 C185.92802,150.236986 180.79802,145.106986 180.79802,138.806986 C180.79802,132.506986 185.92802,127.376986 192.22802,127.376986 C194.07302,127.376986 196.54802,127.691986 197.94302,128.726986" id="XMLID_448_" stroke="#4A4A4A" stroke-width="0.59796"></path>
                            <path d="M192.09302,137.546986 L201.90302,124.766986 C201.90302,124.766986 202.66802,123.686986 203.61302,124.361986 C204.55802,125.081986 203.88302,126.071986 203.88302,126.071986 C203.88302,126.071986 194.29802,138.176986 193.89302,138.716986 C193.39802,139.346986 192.76802,139.796986 192.09302,139.301986 C191.50802,138.896986 191.68802,138.086986 192.09302,137.546986 Z" id="XMLID_449_" stroke="#4A4A4A" stroke-width="0.89694"></path>
                            <polyline id="XMLID_450_" stroke="#4A4A4A" stroke-width="0.89694" points="198.21302 129.401986 197.17802 126.611986 200.37302 121.301986 201.49802 124.496986"></polyline>
                            <polyline id="XMLID_451_" stroke="#4A4A4A" stroke-width="0.89694" points="200.23802 130.976986 202.89302 131.201986 207.16802 126.701986 203.74802 126.476986"></polyline>
                            <path d="M190.24802,124.046986 C190.92302,123.956986 191.55302,123.911986 192.22802,123.911986 C194.34302,123.911986 196.18802,124.181986 197.94302,124.901986" id="XMLID_452_" stroke="#4A4A4A" stroke-width="1.19592"></path>
                            <path d="M190.74302,153.611986 C182.55302,152.756986 176.61302,145.421986 177.46802,137.231986 C177.51302,136.826986 177.55802,136.421986 177.64802,136.016986" id="XMLID_453_" stroke="#4A4A4A" stroke-width="1.19592"></path>
                            <path d="M204.46802,130.076986 C206.49302,132.596986 207.16802,135.296986 207.16802,138.806986 C207.16802,140.471986 206.89802,142.136986 206.35802,143.666986" id="XMLID_454_" stroke="#4A4A4A" stroke-width="1.19592"></path>
                            <path d="M177.60302,136.016986 C178.81802,129.716986 183.90302,124.856986 190.24802,124.001986" id="XMLID_455_" stroke="#4A4A4A" stroke-width="1.19592"></path>
                            <path d="M206.31302,143.666986 C204.24302,149.651986 198.57302,153.701986 192.22802,153.701986 C191.73302,153.701986 191.19302,153.656986 190.69802,153.611986" id="XMLID_456_" stroke="#4A4A4A" stroke-width="1.19592"></path>
                            <ellipse id="XMLID_457_" stroke="#4A4A4A" stroke-width="1.46619" cx="22.3080198" cy="179.936986" rx="3.87" ry="3.87"></ellipse>
                            <path d="M15.5130198,185.831986 C14.0730198,184.211986 13.3080198,182.096986 13.3080198,179.936986" id="XMLID_458_" stroke="#4A4A4A" stroke-width="1.46619"></path>
                            <path d="M29.2380198,174.176986 C30.5880198,175.796986 31.3080198,177.821986 31.3080198,179.891986" id="XMLID_459_" stroke="#4A4A4A" stroke-width="1.46619"></path>
                            <path d="M8.62801984,179.936986 C8.62801984,176.921986 9.61801984,173.996986 11.4630198,171.611986" id="XMLID_460_" stroke="#4A4A4A" stroke-width="1.46619"></path>
                            <path d="M12.1380198,189.071986 C9.88801984,186.551986 8.62801984,183.311986 8.62801984,179.936986" id="XMLID_461_" stroke="#4A4A4A" stroke-width="1.46619"></path>
                            <path d="M35.9430198,179.936986 C35.9430198,183.311986 34.6830198,186.551986 32.4330198,189.071986" id="XMLID_462_" stroke="#4A4A4A" stroke-width="1.46619"></path>
                            <path d="M13.2630198,179.936986 C13.2630198,177.866986 13.9830198,175.796986 15.3330198,174.221986" id="XMLID_463_" stroke="#4A4A4A" stroke-width="1.46619"></path>
                            <path d="M31.3080198,179.936986 C31.3080198,182.186986 30.4980198,184.301986 28.9680198,185.966986" id="XMLID_464_" stroke="#4A4A4A" stroke-width="1.46619"></path>
                            <path d="M32.5230198,170.891986 C34.7280198,173.366986 35.9430198,176.606986 35.9430198,179.936986" id="XMLID_465_" stroke="#4A4A4A" stroke-width="1.46619"></path>
                            <polygon id="XMLID_466_" stroke="#4A4A4A" stroke-width="0.733095" points="22.1730198 187.631986 20.8680198 190.916986 23.5230198 190.961986"></polygon>
                            <polygon id="XMLID_467_" stroke="#4A4A4A" stroke-width="0.733095" points="19.9230198 192.986986 19.1580198 195.056986 25.0980198 195.056986 24.3330198 192.986986"></polygon>
                            <polygon id="XMLID_468_" stroke="#4A4A4A" stroke-width="0.733095" points="18.5280198 197.081986 17.7630198 199.196986 26.5380198 199.196986 25.7730198 197.081986"></polygon>
                            <path d="M21.4080198,183.851986 L14.3880198,203.336986 C14.2980198,203.516986 14.2980198,203.741986 14.3880198,203.921986 C14.4780198,204.056986 14.6130198,204.191986 14.7480198,204.191986 L15.7380198,204.236986 C15.9630198,204.236986 16.1880198,204.191986 16.4130198,204.101986 C16.5930198,203.966986 16.6830198,203.741986 16.7280198,203.516986 L17.1780198,201.761986 L27.0780198,201.761986 L27.6630198,203.831986 C27.6630198,203.966986 27.7530198,204.101986 27.8880198,204.191986 C27.9780198,204.281986 28.1130198,204.326986 28.2480198,204.326986 L29.5080198,204.326986 C29.6430198,204.326986 29.7780198,204.236986 29.9130198,204.146986 C30.0480198,203.966986 29.8230198,203.426986 29.8230198,203.426986 L22.9830198,183.896986" id="XMLID_469_" stroke="#4A4A4A" stroke-width="1.46619"></path>
                            <path d="M88.8630198,12.6719857 C86.8830198,9.70198567 82.8780198,8.84698567 79.9080198,10.8269857 C79.2330198,11.2769857 78.6030198,11.8619857 78.1530198,12.5369857" id="XMLID_470_" stroke="#4A4A4A" stroke-width="1.716525"></path>
                            <path d="M92.2830198,9.56698567 C90.3030198,6.59698567 86.9730198,4.79698567 83.4180198,4.79698567" id="XMLID_471_" stroke="#4A4A4A" stroke-width="1.716525"></path>
                            <path d="M83.4180198,0.0719856696 C78.8280198,0.0719856696 74.5080198,2.32198567 71.8980198,6.10198567" id="XMLID_472_" stroke="#4A4A4A" stroke-width="1.716525"></path>
                            <path d="M82.6980198,26.6669857 L83.5530198,25.9469857 C83.7780198,25.7669857 84.0480198,25.7219857 84.3180198,25.7219857 C84.5880198,25.7219857 84.8130198,25.7669857 84.9930198,25.9469857 L95.9280198,34.5869857 C96.2880198,34.8119857 96.4230198,35.3069857 96.1980198,35.7119857 C96.1530198,35.7569857 96.1080198,35.8469857 96.0630198,35.8919857 C95.7480198,36.3419857 95.1630198,36.4319857 94.7580198,36.1169857 L94.7580198,36.1169857 L84.9930198,28.7819857 C84.7680198,28.6469857 84.4980198,28.5569857 84.2280198,28.5569857 C83.9580198,28.5569857 83.6880198,28.6469857 83.5080198,28.8269857 L74.9130198,35.7569857" id="XMLID_473_" stroke="#4A4A4A" stroke-width="1.287405"></path>
                            <path d="M86.2080198,48.4019857 L79.8630198,48.4019857 C77.8830198,48.4019857 76.2630198,47.6369857 76.2630198,45.6569857 C76.2630198,45.6569857 76.2630198,34.9469857 76.3080198,34.7669857" id="XMLID_474_" stroke="#4A4A4A" stroke-width="1.287405"></path>
                            <path id="XMLID_475_" stroke="#4A4A4A" stroke-width="1.287405"></path>
                            <path d="M79.2780198,48.1769857 L79.2780198,37.9169857 C79.2780198,36.9269857 79.8180198,36.6119857 80.4930198,36.6119857 L83.4630198,36.6119857 C84.1380198,36.6119857 84.6780198,36.8369857 84.6780198,37.8269857 L84.6780198,48.2219857" id="XMLID_476_" stroke="#4A4A4A" stroke-width="1.287405"></path>
                            <path d="M91.7430198,31.2119857 L91.7430198,26.7119857 C91.7430198,26.5319857 91.6080198,26.3969857 91.4280198,26.3969857 L90.4380198,26.3969857 C90.2580198,26.3969857 90.1230198,26.5319857 90.1230198,26.7119857 L90.1230198,29.9069857" id="XMLID_477_" stroke="#4A4A4A" stroke-width="1.287405"></path>
                            <path d="M88.4580198,39.0869857 L88.4580198,39.0869857 C87.3330198,39.0869857 86.4780198,39.9869857 86.4780198,41.0669857 L86.4780198,41.6069857 C86.4780198,42.7319857 87.3780198,43.5869857 88.4580198,43.5869857 C89.5830198,43.5869857 90.4830198,42.6869857 90.4830198,41.6069857 L90.4830198,41.6069857 L90.4830198,41.0669857 C90.4830198,39.9419857 89.5830198,39.0869857 88.4580198,39.0869857 L88.4580198,39.0869857 Z" id="XMLID_478_" stroke="#4A4A4A" stroke-width="1.287405"></path>
                            <path d="M74.9130198,35.6669857 L74.0580198,36.3419857 C73.6530198,36.5669857 73.1130198,36.4769857 72.8430198,36.1169857 C72.5280198,35.7119857 72.5280198,35.1269857 72.9330198,34.8119857 L73.0230198,34.7669857 L82.7430198,26.6219857" id="XMLID_479_" stroke="#4A4A4A" stroke-width="1.287405"></path>
                            <path d="M92.5980198,38.7269857 L92.5980198,45.8819857 C92.5980198,47.8619857 90.9780198,48.4019857 88.9980198,48.4019857 L86.2080198,48.4019857" id="XMLID_480_" stroke="#4A4A4A" stroke-width="1.287405"></path>
                            <path d="M95.0730198,6.32698567 C92.5080198,2.41198567 88.0980198,0.0719856696 83.4180198,0.0719856696" id="XMLID_481_" stroke="#4A4A4A" stroke-width="1.716525"></path>
                            <path d="M83.4180198,4.79698567 C79.9530198,4.79698567 76.6680198,6.50698567 74.6880198,9.38698567" id="XMLID_482_" stroke="#4A4A4A" stroke-width="1.716525"></path>
                            <path d="M81.3930198,15.8219857 C82.1580198,14.6969857 83.6880198,14.3819857 84.8580198,15.1469857 C85.9830198,15.9119857 86.2980198,17.4419857 85.5330198,18.6119857 C84.7680198,19.7369857 83.2380198,20.0519857 82.0680198,19.2869857 C81.3930198,18.8369857 80.9880198,18.0719857 80.9880198,17.2169857 C80.9430198,16.7219857 81.1230198,16.2269857 81.3930198,15.8219857 Z" id="XMLID_483_" stroke="#4A4A4A" stroke-width="1.716525"></path>
                            <path d="M128.95802,189.386986 L130.30802,189.386986 C131.47802,189.386986 132.42302,190.331986 132.42302,191.501986 L132.42302,200.141986 C132.42302,201.311986 131.47802,202.256986 130.30802,202.256986 L128.95802,202.256986 C127.78802,202.256986 126.84302,201.311986 126.84302,200.141986 L126.84302,191.501986 C126.84302,190.331986 127.78802,189.386986 128.95802,189.386986 Z" id="XMLID_484_" stroke="#4A4A4A" stroke-width="1.675665"></path>
                            <path d="M151.59302,189.386986 L152.94302,189.386986 C154.11302,189.386986 155.05802,190.331986 155.05802,191.501986 L155.05802,200.141986 C155.05802,201.311986 154.11302,202.256986 152.94302,202.256986 L151.59302,202.256986 C150.42302,202.256986 149.47802,201.311986 149.47802,200.141986 L149.47802,191.501986 C149.52302,190.331986 150.46802,189.386986 151.59302,189.386986 Z" id="XMLID_485_" stroke="#4A4A4A" stroke-width="1.675665"></path>
                            <path d="M155.91302,186.911986 C156.31802,188.261986 156.54302,189.701986 156.58802,191.096986" id="XMLID_486_" stroke="#4A4A4A" stroke-width="1.675665"></path>
                            <path d="M131.43302,179.711986 C133.77302,177.776986 137.01302,176.381986 141.60302,176.381986 C142.45802,176.381986 143.35802,176.426986 144.21302,176.561986" id="XMLID_487_" stroke="#4A4A4A" stroke-width="1.675665"></path>
                            <path d="M125.67302,191.051986 C125.80802,189.791986 126.07802,188.531986 126.48302,187.316986" id="XMLID_488_" stroke="#4A4A4A" stroke-width="1.675665"></path>
                            <path d="M125.08802,191.591986 L126.03302,191.591986 C126.48302,191.591986 126.88802,191.951986 126.88802,192.446986 L126.88802,196.631986 C126.88802,197.081986 126.52802,197.486986 126.03302,197.486986 L125.08802,197.486986 C124.63802,197.486986 124.23302,197.126986 124.23302,196.631986 L124.23302,192.446986 C124.27802,191.951986 124.63802,191.591986 125.08802,191.591986 Z" id="XMLID_489_" stroke="#4A4A4A" stroke-width="1.675665"></path>
                            <path d="M156.27302,191.051986 L157.21802,191.051986 C157.66802,191.051986 158.07302,191.411986 158.07302,191.906986 L158.07302,196.091986 C158.07302,196.541986 157.71302,196.946986 157.21802,196.946986 L156.27302,196.946986 C155.82302,196.946986 155.41802,196.586986 155.41802,196.091986 L155.41802,191.906986 C155.46302,191.456986 155.82302,191.051986 156.27302,191.051986 Z" id="XMLID_490_" stroke="#4A4A4A" stroke-width="1.675665"></path>
                            <path d="M144.21302,176.516986 C151.86302,177.506986 154.78802,182.951986 155.91302,186.866986" id="XMLID_491_" stroke="#4A4A4A" stroke-width="1.675665"></path>
                            <path d="M126.48302,187.316986 C127.24802,184.976986 128.68802,181.961986 131.43302,179.711986" id="XMLID_492_" stroke="#4A4A4A" stroke-width="1.675665"></path>
                            <path d="M193.80302,199.196986 L191.82302,197.126986 C190.83302,196.091986 190.74302,194.471986 191.64302,193.346986 L191.46302,193.121986" id="XMLID_493_" stroke="#4A4A4A" stroke-width="1.06011"></path>
                            <path d="M184.26302,182.141986 L186.19802,183.446986 C186.19802,184.031986 186.10802,184.616986 185.83802,185.156986 L185.79302,185.201986 L192.67802,192.356986 L192.85802,192.221986 C194.02802,191.411986 195.55802,191.591986 196.54802,192.581986 L202.57802,198.746986 C203.07302,199.286986 203.38802,200.006986 203.38802,200.726986" id="XMLID_494_" stroke="#4A4A4A" stroke-width="1.06011"></path>
                            <path d="M191.41802,193.166986 L189.03302,190.691986" id="XMLID_495_" stroke="#4A4A4A" stroke-width="1.06011"></path>
                            <path d="M191.55302,190.736986 L195.33302,187.271986" id="XMLID_496_" stroke="#4A4A4A" stroke-width="1.06011"></path>
                            <path d="M185.92802,195.956986 L190.29302,191.951986" id="XMLID_497_" stroke="#4A4A4A" stroke-width="1.06011"></path>
                            <path d="M191.64302,196.901986 L184.84802,203.201986 C184.08302,203.966986 182.77802,204.011986 182.01302,203.201986 L181.60802,202.796986 C180.84302,202.031986 180.79802,200.726986 181.60802,199.961986 L185.97302,195.911986" id="XMLID_498_" stroke="#4A4A4A" stroke-width="1.06011"></path>
                            <path d="M198.61802,190.466986 L196.41302,192.446986" id="XMLID_499_" stroke="#4A4A4A" stroke-width="1.06011"></path>
                            <circle id="XMLID_500_" stroke="#4A4A4A" stroke-width="1.06011" cx="183.67802" cy="201.131986" r="0.99"></circle>
                            <path d="M204.33302,184.076986 C205.36802,186.551986 204.19802,189.341986 201.72302,190.376986 C200.73302,190.781986 199.60802,190.871986 198.57302,190.556986" id="XMLID_501_" stroke="#4A4A4A" stroke-width="1.06011"></path>
                            <path d="M195.24302,187.271986 C194.52302,184.706986 195.96302,182.051986 198.52802,181.286986 C199.51802,181.016986 200.50802,181.016986 201.49802,181.376986" id="XMLID_502_" stroke="#4A4A4A" stroke-width="1.06011"></path>
                            <path d="M204.28802,184.076986 L201.99302,186.371986 C201.22802,187.136986 200.01302,187.136986 199.24802,186.371986 C198.48302,185.606986 198.48302,184.391986 199.24802,183.626986 L201.18302,181.691986" id="XMLID_503_" stroke="#4A4A4A" stroke-width="1.06011"></path>
                            <path id="XMLID_504_" stroke="#4A4A4A" stroke-width="0.530055"></path>
                            <path id="XMLID_505_" stroke="#4A4A4A" stroke-width="0.530055"></path>
                            <path d="M191.14802,190.736986 L191.14802,176.696986 C191.14802,176.291986 190.92302,175.931986 190.60802,175.931986 L188.40302,175.931986 C188.13302,175.931986 187.86302,176.246986 187.86302,176.696986 L187.86302,186.641986" id="XMLID_506_" stroke="#4A4A4A" stroke-width="0.530055"></path>
                            <path id="XMLID_507_" stroke="#4A4A4A" stroke-width="0.530055"></path>
                            <path id="XMLID_508_" stroke="#4A4A4A" stroke-width="0.530055"></path>
                            <path d="M197.40302,181.826986 L197.40302,176.471986 C197.40302,176.201986 197.13302,175.976986 196.86302,175.976986 L194.61302,175.976986 C194.34302,175.976986 194.11802,176.201986 194.07302,176.471986 L194.07302,188.216986" id="XMLID_509_" stroke="#4A4A4A" stroke-width="0.530055"></path>
                            <path id="XMLID_510_" stroke="#4A4A4A" stroke-width="0.530055"></path>
                            <path d="M203.92802,184.481986 L203.92802,178.991986 C203.92802,178.811986 203.70302,178.721986 203.38802,178.721986 L201.09302,178.721986 C200.82302,178.721986 200.55302,178.856986 200.55302,178.991986 L200.55302,186.956986" id="XMLID_511_" stroke="#4A4A4A" stroke-width="0.530055"></path>
                            <path d="M185.34302,182.861986 L185.34302,180.026986 C185.34302,179.846986 185.11802,179.756986 184.80302,179.756986 L182.50802,179.756986 C182.23802,179.756986 181.96802,179.891986 181.96802,180.026986 L181.96802,180.296986" id="XMLID_512_" stroke="#4A4A4A" stroke-width="0.530055"></path>
                            <path d="M203.38802,200.366986 C203.70302,200.366986 203.92802,200.141986 203.92802,199.826986 L203.92802,188.576986" id="XMLID_513_" stroke="#4A4A4A" stroke-width="0.530055"></path>
                            <path d="M203.34302,200.726986 C203.34302,201.491986 203.02802,202.256986 202.48802,202.796986 L201.90302,203.336986 C200.77802,204.416986 198.93302,204.416986 197.85302,203.291986 L193.84802,199.196986" id="XMLID_514_" stroke="#4A4A4A" stroke-width="1.06011"></path>
                            <path d="M189.03302,190.691986 L184.75802,186.281986 L184.66802,186.191986 C184.12802,186.416986 183.54302,186.551986 182.95802,186.506986 L180.48302,182.546986 L182.23802,180.836986 L184.21802,182.141986" id="XMLID_515_" stroke="#4A4A4A" stroke-width="1.06011"></path>
                            <path d="M81.7980198,181.466986 C79.6380198,181.511986 78.1080198,178.811986 78.1080198,178.811986 C78.1080198,178.811986 77.6580198,181.151986 76.4430198,181.511986" id="XMLID_516_" stroke="#4A4A4A" stroke-width="0.55953"></path>
                            <path d="M76.3080198,186.731986 C76.3080198,186.731986 76.9380198,188.171986 79.0980198,188.171986 C80.3130198,188.216986 81.4380198,187.631986 82.1580198,186.686986" id="XMLID_517_" stroke="#4A4A4A" stroke-width="0.55953"></path>
                            <path d="M82.0230198,180.836986 L82.0230198,181.376986 C82.0680198,181.331986 82.1580198,181.331986 82.2480198,181.331986 C82.6530198,181.421986 82.9230198,181.781986 82.8780198,182.186986 C82.8330198,182.501986 82.5630198,182.726986 82.2480198,182.816986 C82.1580198,182.816986 82.1130198,182.816986 82.0230198,182.771986 L82.0230198,182.771986 C81.8880198,184.211986 80.6730198,185.291986 79.1880198,185.291986 C77.7930198,185.291986 76.5780198,184.256986 76.3980198,182.816986 C75.9930198,182.816986 75.6780198,182.501986 75.6780198,182.096986 L75.6780198,182.096986 C75.6780198,181.691986 75.9930198,181.331986 76.3530198,181.331986" id="XMLID_518_" stroke="#4A4A4A" stroke-width="0.55953"></path>
                            <path d="M76.3080198,180.566986 L76.3080198,180.071986 C76.2630198,179.216986 76.7580198,178.406986 77.5230198,177.956986" id="XMLID_519_" stroke="#4A4A4A" stroke-width="0.55953"></path>
                            <path id="XMLID_520_" stroke="#4A4A4A" stroke-width="0.55953"></path>
                            <path d="M84.9480198,193.796986 L84.9480198,192.626986 C84.9480198,191.681986 84.9480198,189.071986 84.9030198,188.981986 C84.4980198,186.506986 80.7630198,186.191986 80.7630198,186.191986 L80.7630198,184.796986" id="XMLID_521_" stroke="#4A4A4A" stroke-width="0.55953"></path>
                            <path d="M73.5180198,192.266986 L73.5180198,192.581986 L73.5180198,193.436986" id="XMLID_522_" stroke="#4A4A4A" stroke-width="0.55953"></path>
                            <path d="M77.6580198,184.886986 L77.6580198,186.191986 C77.0280198,186.236986 76.3980198,186.371986 75.7680198,186.596986" id="XMLID_523_" stroke="#4A4A4A" stroke-width="0.55953"></path>
                            <path id="XMLID_524_" stroke="#4A4A4A" stroke-width="0.55953"></path>
                            <path id="XMLID_525_" stroke="#4A4A4A" stroke-width="0.55953"></path>
                            <path d="M82.5630198,190.466986 C82.5630198,190.466986 84.3180198,190.961986 84.9030198,190.196986" id="XMLID_526_" stroke="#4A4A4A" stroke-width="0.55953"></path>
                            <path d="M74.0580198,190.691986 C74.0580198,190.691986 75.0480198,191.096986 75.6780198,190.511986" id="XMLID_527_" stroke="#4A4A4A" stroke-width="0.55953"></path>
                            <path d="M75.8130198,186.596986 C74.8680198,186.956986 73.8330198,187.586986 73.5630198,188.756986 C73.5180198,188.891986 73.5180198,191.096986 73.5180198,192.221986" id="XMLID_528_" stroke="#4A4A4A" stroke-width="0.55953"></path>
                            <path d="M77.5230198,177.956986 C78.0180198,177.686986 78.5130198,177.596986 79.0980198,177.596986 C80.6730198,177.596986 82.0680198,178.631986 82.0680198,180.161986 L82.0230198,180.836986" id="XMLID_529_" stroke="#4A4A4A" stroke-width="0.55953"></path>
                            <path d="M67.9380198,191.771986 C64.0680198,185.471986 66.0480198,177.236986 72.3480198,173.366986 C74.4630198,172.061986 76.8930198,171.386986 79.3680198,171.386986 C79.8180198,171.386986 80.2680198,171.431986 80.7180198,171.476986" id="XMLID_530_" stroke="#4A4A4A" stroke-width="1.11906"></path>
                            <path d="M91.0230198,191.321986 C89.2230198,194.516986 86.2080198,196.811986 82.6980198,197.756986" id="XMLID_531_" stroke="#4A4A4A" stroke-width="1.11906"></path>
                            <path d="M80.7180198,171.431986 C88.0530198,172.196986 93.4080198,178.766986 92.6430198,186.146986 C92.4630198,187.946986 91.8780198,189.701986 91.0230198,191.321986" id="XMLID_532_" stroke="#4A4A4A" stroke-width="1.11906"></path>
                            <path d="M88.8180198,194.201986 L100.83302,205.046986 C101.32802,205.631986 101.19302,206.531986 100.60802,207.026986 C99.3480198,208.151986 98.5380198,207.026986 98.5380198,207.026986 L86.5230198,196.181986" id="XMLID_533_" stroke="#4A4A4A" stroke-width="1.11906"></path>
                            <path d="M82.6530198,197.756986 C76.9830198,199.196986 70.9980198,196.811986 67.8930198,191.816986" id="XMLID_534_" stroke="#4A4A4A" stroke-width="1.11906"></path>
                            <ellipse id="XMLID_535_" stroke="#4A4A4A" stroke-width="0.55953" cx="79.2330198" cy="184.886986" rx="10.665" ry="10.665"></ellipse>
                        </g>
                    </g>
                </g>
            </g>
        </g>
    </g>
</svg>